# xmcd CD database file
#
# Track frame offsets:
#	150
#	17727
#	46314
#	67846
#	89464
#	109879
#	129226
#	149057
#	161340
#	179862
#
# Disc length: 2753 seconds
#
# Revision: 0
# Processed by: cddbd v1.5.1PL2 Copyright (c) Steve Scherf et al.
# Submitted via: CDex 1.51
#
DISCID=8a0abf0a
DTITLE=Billy Goodman - Hellrides And Hollywood Waltzes
DYEAR=2001
DGENRE=Blues
TTITLE0=Lost Highway
TTITLE1=Hellride
TTITLE2=Talk with me
TTITLE3=Dark Horses
TTITLE4=Central Florida
TTITLE5=Hollywood Waltz
TTITLE6=Love is the Test
TTITLE7=I got a woman
TTITLE8=Shadow of the master
TTITLE9=The Vapor
EXTD=YEAR: 2001
EXTT0=
EXTT1=
EXTT2=
EXTT3=
EXTT4=
EXTT5=
EXTT6=
EXTT7=
EXTT8=
EXTT9=
PLAYORDER=
